<svg width="23" height="22" viewBox="0 0 23 22" fill="none" xmlns="http://www.w3.org/2000/svg">
<path d="M12.4705 9.81843C11.7188 9.08585 10.6994 8.67432 9.63644 8.67432C8.57351 8.67432 7.5541 9.08585 6.80234 9.81843L3.96732 12.5814C3.21555 13.3143 2.79321 14.3083 2.79321 15.3448C2.79321 16.3812 3.21555 17.3753 3.96732 18.1082C4.7191 18.8411 5.73872 19.2528 6.80188 19.2528C7.86505 19.2528 8.88467 18.8411 9.63644 18.1082L11.0535 16.7267" stroke="#FCFCFC" stroke-width="1.66667" stroke-linecap="round" stroke-linejoin="round"/>
<path d="M9.63647 12.5813C10.3882 13.3139 11.4076 13.7255 12.4706 13.7255C13.5335 13.7255 14.5529 13.3139 15.3047 12.5813L18.1397 9.8184C18.8915 9.0855 19.3138 8.09148 19.3138 7.055C19.3138 6.01853 18.8915 5.02451 18.1397 4.29161C17.3879 3.55871 16.3683 3.14697 15.3051 3.14697C14.242 3.14697 13.2223 3.55871 12.4706 4.29161L11.0535 5.67308" stroke="#FCFCFC" stroke-width="1.66667" stroke-linecap="round" stroke-linejoin="round"/>
</svg>
