<svg xmlns="http://www.w3.org/2000/svg" xmlns:xlink="http://www.w3.org/1999/xlink" width="500" zoomAndPan="magnify" viewBox="0 0 375 374.999991" height="500" preserveAspectRatio="xMidYMid meet" version="1.0"><defs><clipPath id="2f9a3fad84"><path d="M 55.257812 47 L 320 47 L 320 328 L 55.257812 328 Z M 55.257812 47 " clip-rule="nonzero"/></clipPath></defs><g clip-path="url(#2f9a3fad84)"><path fill="#e23237" d="M 55.257812 93.804688 L 185.808594 47.375 L 319.796875 93.085938 L 298.140625 265.617188 L 185.808594 327.710938 L 75.296875 266.421875 Z M 55.257812 93.804688 " fill-opacity="1" fill-rule="nonzero"/></g><path fill="#b52e31" d="M 319.796875 93.085938 L 185.808594 47.375 L 185.808594 327.710938 L 298.140625 265.617188 Z M 319.796875 93.085938 " fill-opacity="1" fill-rule="nonzero"/><path fill="#ffffff" d="M 186.007812 80.136719 L 104.65625 260.957031 L 135.015625 260.34375 L 151.40625 219.484375 L 224.167969 219.484375 L 241.984375 260.65625 L 270.929688 261.269531 Z M 186.210938 138.183594 L 213.738281 195.628906 L 162.207031 195.628906 L 186.289062 138.183594 Z M 186.210938 138.183594 " fill-opacity="1" fill-rule="nonzero"/></svg>