<svg xmlns="http://www.w3.org/2000/svg" xmlns:xlink="http://www.w3.org/1999/xlink" width="500" zoomAndPan="magnify" viewBox="0 0 375 374.999991" height="500" preserveAspectRatio="xMidYMid meet" version="1.0"><defs><clipPath id="4ac8d567e0"><path d="M 61.273438 48.023438 L 314 48.023438 L 314 327 L 61.273438 327 Z M 61.273438 48.023438 " clip-rule="nonzero"/></clipPath><clipPath id="93608bd867"><path d="M 61.273438 48.023438 L 310 48.023438 L 310 257 L 61.273438 257 Z M 61.273438 48.023438 " clip-rule="nonzero"/></clipPath></defs><g clip-path="url(#4ac8d567e0)"><path fill="#1a4674" d="M 180.246094 50.578125 C 184.734375 48.058594 190.261719 48.058594 194.742188 50.578125 C 216.917969 63.023438 283.652344 100.488281 305.835938 112.933594 C 310.324219 115.445312 313.085938 120.101562 313.085938 125.136719 C 313.085938 150.03125 313.085938 224.953125 313.085938 249.847656 C 313.085938 254.882812 310.324219 259.539062 305.835938 262.054688 C 283.660156 274.503906 216.925781 311.96875 194.742188 324.414062 C 190.253906 326.933594 184.726562 326.933594 180.246094 324.414062 C 158.070312 311.96875 91.335938 274.503906 69.152344 262.054688 C 64.671875 259.539062 61.90625 254.890625 61.90625 249.855469 C 61.90625 224.960938 61.90625 150.035156 61.90625 125.144531 C 61.90625 120.105469 64.671875 115.453125 69.160156 112.933594 C 91.328125 100.488281 158.078125 63.023438 180.246094 50.578125 Z M 180.246094 50.578125 " fill-opacity="1" fill-rule="nonzero"/></g><g clip-path="url(#93608bd867)"><path fill="#5c8dbc" d="M 63.917969 256.265625 C 62.160156 253.914062 61.90625 251.679688 61.90625 248.671875 C 61.90625 223.921875 61.90625 149.429688 61.90625 124.675781 C 61.90625 119.664062 64.664062 115.039062 69.140625 112.539062 C 91.238281 100.164062 157.746094 62.917969 179.84375 50.535156 C 184.320312 48.03125 190.378906 48.085938 194.855469 50.589844 C 216.953125 62.964844 283.238281 99.894531 305.335938 112.265625 C 307.117188 113.273438 308.480469 114.480469 309.695312 116.074219 Z M 63.917969 256.265625 " fill-opacity="1" fill-rule="nonzero"/></g><path fill="#ffffff" d="M 187.496094 94.957031 C 136.402344 94.957031 94.957031 136.402344 94.957031 187.496094 C 94.957031 238.589844 136.402344 280.035156 187.496094 280.035156 C 238.59375 280.035156 280.039062 238.589844 280.039062 187.496094 C 280.039062 136.402344 238.59375 94.957031 187.496094 94.957031 Z M 187.496094 233.765625 C 161.984375 233.765625 141.226562 213.011719 141.226562 187.496094 C 141.226562 161.980469 161.984375 141.226562 187.496094 141.226562 C 213.011719 141.226562 233.769531 161.980469 233.769531 187.496094 C 233.769531 213.011719 213.011719 233.765625 187.496094 233.765625 Z M 187.496094 233.765625 " fill-opacity="1" fill-rule="nonzero"/><path fill="#1b598e" d="M 309.683594 116.140625 C 313.09375 119.332031 313.027344 124.144531 313.027344 127.933594 C 313.027344 153.019531 312.816406 224.367188 313.085938 249.453125 C 313.113281 252.070312 312.25 254.824219 310.953125 256.902344 L 184.808594 187.496094 Z M 309.683594 116.140625 " fill-opacity="1" fill-rule="nonzero"/><path fill="#ffffff" d="M 253.597656 161.054688 L 260.207031 161.054688 L 260.207031 213.9375 L 253.597656 213.9375 Z M 273.425781 161.054688 L 280.039062 161.054688 L 280.039062 213.9375 L 273.425781 213.9375 Z M 273.425781 161.054688 " fill-opacity="1" fill-rule="nonzero"/><path fill="#ffffff" d="M 240.378906 194.105469 L 293.257812 194.105469 L 293.257812 200.714844 L 240.378906 200.714844 Z M 240.378906 174.277344 L 293.257812 174.277344 L 293.257812 180.886719 L 240.378906 180.886719 Z M 240.378906 174.277344 " fill-opacity="1" fill-rule="nonzero"/></svg>