<svg width="31" height="31" viewBox="0 0 31 31" fill="none" xmlns="http://www.w3.org/2000/svg">
<g id="Solid/Brands/Figma">
<g id="Subtract">
<path d="M8.46738 4.26955C9.13353 3.60341 10.037 3.22917 10.9791 3.22917H14.5312V10.3333H10.9791C10.037 10.3333 9.13353 9.9591 8.46738 9.29295C7.80124 8.62681 7.427 7.72332 7.427 6.78125C7.427 5.83918 7.80124 4.9357 8.46738 4.26955Z" fill="white"/>
<path d="M20.0208 10.3333H16.4687V3.22917H20.0208C20.4872 3.22917 20.9491 3.32105 21.3801 3.49956C21.811 3.67807 22.2026 3.93971 22.5325 4.26955C22.8623 4.59939 23.1239 4.99097 23.3024 5.42193C23.481 5.85289 23.5728 6.31479 23.5728 6.78125C23.5728 7.24772 23.481 7.70961 23.3024 8.14057C23.1239 8.57153 22.8623 8.96311 22.5325 9.29295C22.2026 9.62279 21.811 9.88444 21.3801 10.0629C20.9491 10.2415 20.4872 10.3333 20.0208 10.3333Z" fill="white"/>
<path d="M20.0208 12.2708C19.5543 12.2708 19.0924 12.3627 18.6614 12.5412C18.2305 12.7197 17.8389 12.9814 17.5091 13.3112C17.1792 13.6411 16.9176 14.0326 16.7391 14.4636C16.5605 14.8946 16.4687 15.3565 16.4687 15.8229C16.4687 16.2894 16.5605 16.7513 16.7391 17.1822C16.9176 17.6132 17.1792 18.0048 17.5091 18.3346C17.8389 18.6645 18.2305 18.9261 18.6614 19.1046C19.0924 19.2831 19.5543 19.375 20.0208 19.375C20.4872 19.375 20.9491 19.2831 21.3801 19.1046C21.811 18.9261 22.2026 18.6645 22.5325 18.3346C22.8623 18.0048 23.1239 17.6132 23.3024 17.1822C23.481 16.7513 23.5728 16.2894 23.5728 15.8229C23.5728 15.3565 23.481 14.8946 23.3024 14.4636C23.1239 14.0326 22.8623 13.6411 22.5325 13.3112C22.2026 12.9814 21.811 12.7197 21.3801 12.5412C20.9491 12.3627 20.4872 12.2708 20.0208 12.2708Z" fill="white"/>
<path d="M8.46738 22.3529C9.13353 21.6867 10.037 21.3125 10.9791 21.3125H14.5312V24.8646C14.5312 25.8067 14.1569 26.7101 13.4908 27.3763C12.8246 28.0424 11.9212 28.4167 10.9791 28.4167C10.037 28.4167 9.13353 28.0424 8.46738 27.3763C7.80124 26.7101 7.427 25.8067 7.427 24.8646C7.427 23.9225 7.80124 23.019 8.46738 22.3529Z" fill="white"/>
<path d="M10.9791 12.2708C10.037 12.2708 9.13353 12.6451 8.46738 13.3112C7.80124 13.9774 7.427 14.8808 7.427 15.8229C7.427 16.765 7.80124 17.6685 8.46738 18.3346C9.13353 19.0008 10.037 19.375 10.9791 19.375H14.5312V12.2708H10.9791Z" fill="white"/>
</g>
</g>
</svg>
