<svg xmlns="http://www.w3.org/2000/svg" xmlns:xlink="http://www.w3.org/1999/xlink" width="500" zoomAndPan="magnify" viewBox="0 0 375 374.999991" height="500" preserveAspectRatio="xMidYMid meet" version="1.0"><defs><clipPath id="5660189436"><path d="M 64.644531 48 L 310.644531 48 L 310.644531 327.8125 L 64.644531 327.8125 Z M 64.644531 48 " clip-rule="nonzero"/></clipPath></defs><g clip-path="url(#5660189436)"><path fill="#e44d26" d="M 86.976562 299.160156 L 64.578125 48.101562 L 310.714844 48.101562 L 288.296875 299.125 L 187.488281 327.035156 Z M 86.976562 299.160156 " fill-opacity="1" fill-rule="nonzero"/></g><path fill="#f16529" d="M 269.097656 283.136719 L 288.261719 68.628906 L 187.644531 68.628906 L 187.644531 305.707031 Z M 269.097656 283.136719 " fill-opacity="1" fill-rule="nonzero"/><path fill="#ebebeb" d="M 187.542969 99.417969 L 110.375 99.417969 L 118.6875 192.53125 L 187.644531 192.53125 L 187.644531 161.746094 L 146.871094 161.746094 L 144.054688 130.214844 L 187.644531 130.214844 L 187.644531 99.417969 Z M 187.644531 241.609375 L 187.515625 241.644531 L 153.199219 232.386719 L 151.015625 207.832031 L 120.066406 207.832031 L 124.382812 256.175781 L 187.507812 273.609375 L 187.644531 273.566406 Z M 187.644531 241.609375 " fill-opacity="1" fill-rule="nonzero"/><path fill="#ffffff" d="M 187.542969 192.53125 L 225.488281 192.53125 L 222 232.457031 L 187.628906 241.722656 L 187.628906 273.757812 L 250.804688 256.261719 L 259.265625 161.726562 L 187.644531 161.726562 Z M 263.992188 107.679688 L 264.726562 99.417969 L 187.523438 99.417969 L 187.523438 130.207031 L 261.953125 130.207031 L 262.5625 123.285156 Z M 263.992188 107.679688 " fill-opacity="1" fill-rule="nonzero"/></svg>