<svg xmlns="http://www.w3.org/2000/svg" xmlns:xlink="http://www.w3.org/1999/xlink" width="500" zoomAndPan="magnify" viewBox="0 0 375 374.999991" height="500" preserveAspectRatio="xMidYMid meet" version="1.0"><defs><clipPath id="db00acdf1e"><path d="M 104 47.3125 L 318.351562 47.3125 L 318.351562 327.8125 L 104 327.8125 Z M 104 47.3125 " clip-rule="nonzero"/></clipPath><clipPath id="148895d3ec"><path d="M 234 47.3125 L 318.351562 47.3125 L 318.351562 132 L 234 132 Z M 234 47.3125 " clip-rule="nonzero"/></clipPath><clipPath id="731da1b181"><path d="M 56.601562 166 L 266 166 L 266 254 L 56.601562 254 Z M 56.601562 166 " clip-rule="nonzero"/></clipPath></defs><g clip-path="url(#db00acdf1e)"><path fill="#ffb11f" d="M 139.640625 47.320312 L 234.5625 47.320312 L 318.382812 131.175781 L 318.382812 292.234375 C 318.382812 311.808594 302.378906 327.808594 282.832031 327.808594 L 139.640625 327.808594 C 120.097656 327.808594 104.09375 311.808594 104.09375 292.234375 L 104.09375 82.875 C 104.09375 63.320312 120.097656 47.320312 139.640625 47.320312 Z M 139.640625 47.320312 " fill-opacity="1" fill-rule="evenodd"/></g><g clip-path="url(#148895d3ec)"><path fill="#cc8e18" d="M 234.5625 47.320312 L 318.382812 131.175781 L 243.613281 131.175781 C 238.632812 131.175781 234.5625 127.105469 234.5625 122.132812 Z M 234.5625 47.320312 " fill-opacity="1" fill-rule="evenodd"/></g><g clip-path="url(#731da1b181)"><path fill="#cc8e18" d="M 64.425781 166.75 L 257.472656 166.75 C 261.765625 166.75 265.292969 170.257812 265.292969 174.554688 L 265.292969 245.425781 C 265.292969 249.722656 261.765625 253.25 257.472656 253.25 L 64.425781 253.25 C 60.132812 253.25 56.625 249.722656 56.625 245.425781 L 56.625 174.554688 C 56.625 170.257812 60.132812 166.75 64.425781 166.75 Z M 64.425781 166.75 " fill-opacity="1" fill-rule="evenodd"/></g><path fill="#ffffff" d="M 205.75 222.117188 C 205.75 231.308594 198.289062 238.78125 189.113281 238.78125 L 181.90625 238.78125 C 174.003906 238.78125 167.574219 232.351562 167.574219 224.441406 C 167.574219 221.941406 169.601562 219.914062 172.101562 219.914062 C 174.601562 219.914062 176.625 221.941406 176.625 224.441406 C 176.625 227.355469 178.992188 229.726562 181.90625 229.726562 L 189.113281 229.726562 C 193.296875 229.726562 196.699219 226.3125 196.699219 222.117188 C 196.699219 217.933594 193.296875 214.527344 189.113281 214.527344 C 185.285156 214.527344 179.679688 214.25 175.238281 211.847656 C 171.742188 209.953125 167.574219 205.988281 167.574219 197.863281 C 167.574219 188.683594 175.039062 181.21875 184.210938 181.21875 L 191.421875 181.21875 C 199.320312 181.21875 205.75 187.648438 205.75 195.558594 C 205.75 198.058594 203.726562 200.085938 201.226562 200.085938 C 198.726562 200.085938 196.699219 198.058594 196.699219 195.558594 C 196.699219 192.644531 194.332031 190.273438 191.421875 190.273438 L 184.210938 190.273438 C 180.027344 190.273438 176.625 193.679688 176.625 197.863281 C 176.625 202.027344 177.566406 205.472656 189.113281 205.472656 C 198.289062 205.46875 205.75 212.9375 205.75 222.117188 Z M 149 181.214844 C 146.5 181.214844 144.472656 183.242188 144.472656 185.742188 L 144.472656 219.679688 C 144.472656 225.21875 139.96875 229.722656 134.4375 229.722656 C 130.175781 229.722656 126.363281 227 124.945312 222.949219 C 124.121094 220.585938 121.539062 219.339844 119.183594 220.167969 C 116.820312 220.992188 115.578125 223.574219 116.402344 225.9375 C 119.085938 233.621094 126.332031 238.78125 134.4375 238.78125 C 144.960938 238.78125 153.523438 230.214844 153.523438 219.679688 L 153.523438 185.746094 C 153.523438 183.242188 151.5 181.214844 149 181.214844 Z M 149 181.214844 " fill-opacity="1" fill-rule="nonzero"/></svg>