<svg xmlns="http://www.w3.org/2000/svg" xmlns:xlink="http://www.w3.org/1999/xlink" width="500" zoomAndPan="magnify" viewBox="0 0 375 374.999991" height="500" preserveAspectRatio="xMidYMid meet" version="1.0"><defs><clipPath id="cce798a6b4"><path d="M 23.960938 80 L 350.960938 80 L 350.960938 295 L 23.960938 295 Z M 23.960938 80 " clip-rule="nonzero"/></clipPath></defs><path fill="#ffffff" d="M 155.539062 136.480469 L 155.539062 130.703125 C 164.25 134.8125 178.890625 137.671875 195.53125 137.671875 C 212.171875 137.671875 226.816406 134.8125 235.523438 130.703125 L 235.523438 147.269531 C 235.523438 147.433594 235.3125 147.507812 235.179688 147.664062 C 234.921875 147.957031 234.609375 148.242188 234.25 148.523438 C 233.140625 149.394531 231.6875 150.191406 229.964844 150.9375 C 222.203125 154.308594 209.664062 156.402344 195.53125 156.402344 C 181.402344 156.402344 168.859375 154.308594 161.097656 150.9375 C 159.375 150.191406 157.921875 149.394531 156.8125 148.523438 C 156.457031 148.242188 156.140625 147.957031 155.882812 147.664062 C 155.75 147.507812 155.539062 147.433594 155.539062 147.269531 Z M 191 152.3125 L 200.066406 152.3125 C 202.976562 152.3125 205.339844 149.945312 205.339844 147.035156 C 205.339844 144.125 202.976562 141.761719 200.066406 141.761719 L 191 141.761719 C 188.085938 141.761719 185.722656 144.125 185.722656 147.035156 C 185.722656 149.945312 188.085938 152.3125 191 152.3125 Z M 155.539062 161.675781 L 155.539062 159.984375 C 164.25 164.09375 178.890625 166.953125 195.53125 166.953125 C 212.171875 166.953125 226.816406 164.09375 235.523438 159.984375 L 235.523438 176.546875 C 235.523438 176.714844 235.3125 176.789062 235.179688 176.941406 C 234.921875 177.238281 234.609375 177.523438 234.25 177.804688 C 233.140625 178.675781 231.6875 179.46875 229.964844 180.21875 C 222.203125 183.589844 209.664062 185.679688 195.53125 185.679688 C 181.402344 185.679688 168.859375 183.589844 161.101562 180.21875 C 159.375 179.46875 157.921875 178.675781 156.8125 177.804688 C 156.457031 177.523438 156.140625 177.238281 155.882812 176.941406 C 155.75 176.789062 155.539062 176.714844 155.539062 176.546875 Z M 191 181.59375 L 200.066406 181.59375 C 202.976562 181.59375 205.339844 179.226562 205.339844 176.316406 C 205.339844 173.40625 202.976562 171.042969 200.066406 171.042969 L 191 171.042969 C 188.085938 171.042969 185.722656 173.40625 185.722656 176.316406 C 185.722656 179.226562 188.085938 181.59375 191 181.59375 Z M 155.539062 189.265625 C 164.25 193.375 178.890625 196.230469 195.53125 196.230469 C 212.171875 196.230469 226.816406 193.375 235.523438 189.265625 L 235.523438 205.828125 C 235.523438 205.996094 235.3125 206.070312 235.179688 206.222656 C 234.921875 206.519531 234.609375 206.800781 234.25 207.082031 C 233.140625 207.957031 231.6875 208.75 229.964844 209.5 C 222.203125 212.871094 209.664062 214.960938 195.53125 214.960938 C 181.402344 214.960938 168.859375 212.871094 161.101562 209.5 C 159.375 208.75 157.921875 207.957031 156.8125 207.082031 C 156.457031 206.800781 156.140625 206.519531 155.882812 206.222656 C 155.75 206.070312 155.539062 205.996094 155.539062 205.828125 Z M 191 210.871094 L 200.066406 210.871094 C 202.976562 210.871094 205.339844 208.507812 205.339844 205.597656 C 205.339844 202.6875 202.976562 200.320312 200.066406 200.320312 L 191 200.320312 C 188.085938 200.320312 185.722656 202.6875 185.722656 205.597656 C 185.722656 208.507812 188.085938 210.871094 191 210.871094 Z M 235.523438 117.988281 C 235.523438 118.15625 235.3125 118.230469 235.179688 118.382812 C 234.921875 118.675781 234.609375 118.960938 234.25 119.242188 C 233.140625 120.113281 231.6875 120.910156 229.964844 121.660156 C 222.203125 125.027344 209.664062 127.121094 195.53125 127.121094 C 181.402344 127.121094 168.859375 125.027344 161.097656 121.660156 C 159.375 120.910156 157.921875 120.113281 156.8125 119.242188 C 156.457031 118.960938 156.140625 118.675781 155.882812 118.382812 C 155.75 118.230469 155.539062 118.15625 155.539062 117.988281 C 155.539062 117.820312 155.75 117.746094 155.882812 117.59375 C 156.140625 117.296875 156.457031 117.015625 156.8125 116.734375 C 157.921875 115.859375 159.375 115.066406 161.101562 114.316406 C 168.859375 110.949219 181.402344 108.855469 195.53125 108.855469 C 209.664062 108.855469 222.203125 110.949219 229.964844 114.316406 C 231.6875 115.066406 233.140625 115.859375 234.25 116.734375 C 234.609375 117.015625 234.921875 117.296875 235.179688 117.59375 C 235.3125 117.746094 235.523438 117.820312 235.523438 117.988281 Z M 235.523438 117.988281 " fill-opacity="1" fill-rule="evenodd"/><g clip-path="url(#cce798a6b4)"><path fill="#ffffff" d="M 158.738281 241.835938 L 96.453125 241.835938 C 87.117188 241.835938 79.378906 234.632812 78.523438 225.511719 L 92.726562 225.511719 C 94.582031 225.511719 96.304688 224.535156 97.253906 222.9375 L 116.65625 190.40625 L 144.988281 190.40625 L 144.988281 205.828125 C 144.988281 209.683594 147.34375 213.746094 152.554688 216.945312 C 160.617188 221.894531 176.808594 225.511719 195.53125 225.511719 C 214.253906 225.511719 230.449219 221.894531 238.507812 216.945312 C 243.71875 213.746094 246.074219 209.683594 246.074219 205.828125 L 246.074219 190.40625 L 274.40625 190.40625 C 274.40625 190.40625 293.808594 222.9375 293.808594 222.9375 C 294.761719 224.535156 296.480469 225.511719 298.339844 225.511719 L 312.542969 225.511719 C 311.6875 234.632812 303.949219 241.835938 294.613281 241.835938 L 232.339844 241.835938 L 232.339844 270.445312 L 259.742188 270.445312 C 268.179688 270.445312 275.09375 275.960938 275.09375 282.699219 L 275.09375 294.96875 L 115.984375 294.96875 L 115.984375 282.699219 C 115.984375 275.960938 122.898438 270.445312 131.335938 270.445312 L 158.738281 270.445312 Z M 78.871094 96.097656 C 80.660156 88.050781 87.882812 81.980469 96.453125 81.980469 L 294.613281 81.980469 C 303.179688 81.980469 310.40625 88.050781 312.195312 96.097656 L 298.339844 96.097656 C 296.480469 96.097656 294.761719 97.078125 293.808594 98.671875 L 274.40625 131.207031 L 246.074219 131.207031 L 246.074219 117.988281 C 246.074219 114.132812 243.71875 110.074219 238.507812 106.871094 C 230.449219 101.921875 214.253906 98.304688 195.53125 98.304688 C 176.808594 98.304688 160.617188 101.921875 152.554688 106.871094 C 147.34375 110.074219 144.988281 114.132812 144.988281 117.988281 L 144.988281 131.207031 L 116.65625 131.207031 C 116.65625 131.207031 97.253906 98.671875 97.253906 98.671875 C 96.304688 97.078125 94.582031 96.097656 92.726562 96.097656 Z M 312.621094 106.648438 L 312.621094 156.402344 L 246.074219 156.402344 L 246.074219 141.757812 L 277.402344 141.757812 C 279.261719 141.757812 280.984375 140.777344 281.933594 139.183594 L 301.335938 106.648438 Z M 312.621094 166.953125 L 312.621094 214.960938 L 301.335938 214.960938 L 281.933594 182.429688 C 280.984375 180.832031 279.261719 179.855469 277.402344 179.855469 L 246.074219 179.855469 L 246.074219 166.953125 Z M 78.441406 214.960938 L 78.441406 166.953125 L 144.988281 166.953125 L 144.988281 179.855469 L 113.660156 179.855469 C 111.800781 179.855469 110.082031 180.832031 109.128906 182.429688 L 89.726562 214.960938 Z M 78.441406 156.402344 L 78.441406 106.648438 L 89.726562 106.648438 L 109.128906 139.183594 C 110.082031 140.777344 111.800781 141.757812 113.660156 141.757812 L 144.988281 141.757812 L 144.988281 156.402344 Z M 75.804688 106.648438 L 66 106.648438 C 63.648438 115.886719 55.273438 122.722656 45.308594 122.722656 C 33.527344 122.722656 23.960938 113.15625 23.960938 101.375 C 23.960938 89.589844 33.527344 80.023438 45.308594 80.023438 C 55.273438 80.023438 63.648438 86.863281 66 96.097656 L 76.175781 96.097656 C 75.933594 97.359375 75.804688 98.660156 75.804688 99.988281 Z M 56.109375 101.375 C 56.109375 95.414062 51.269531 90.574219 45.308594 90.574219 C 39.347656 90.574219 34.511719 95.414062 34.511719 101.375 C 34.511719 107.335938 39.347656 112.175781 45.308594 112.175781 C 51.269531 112.175781 56.109375 107.335938 56.109375 101.375 Z M 314.886719 96.097656 L 334.921875 96.097656 L 331.804688 92.117188 C 330.007812 89.824219 330.414062 86.507812 332.707031 84.710938 C 334.996094 82.914062 338.316406 83.320312 340.109375 85.613281 L 349.910156 98.121094 C 351.402344 100.03125 351.402344 102.71875 349.910156 104.628906 L 340.109375 117.136719 C 338.316406 119.429688 334.996094 119.832031 332.707031 118.039062 C 330.414062 116.242188 330.007812 112.925781 331.804688 110.632812 L 334.921875 106.648438 L 315.257812 106.648438 L 315.257812 99.988281 C 315.257812 98.660156 315.128906 97.359375 314.886719 96.097656 Z M 315.257812 156.402344 L 334.921875 156.402344 L 331.804688 152.417969 C 330.007812 150.125 330.414062 146.808594 332.707031 145.011719 C 334.996094 143.21875 338.316406 143.621094 340.109375 145.914062 L 349.910156 158.421875 C 351.402344 160.332031 351.402344 163.019531 349.910156 164.929688 L 340.109375 177.4375 C 338.316406 179.730469 334.996094 180.136719 332.707031 178.339844 C 330.414062 176.542969 330.007812 173.226562 331.804688 170.933594 L 334.921875 166.953125 L 315.257812 166.953125 Z M 315.257812 214.960938 L 334.921875 214.960938 L 331.804688 210.980469 C 330.007812 208.6875 330.414062 205.367188 332.707031 203.574219 C 334.996094 201.777344 338.316406 202.183594 340.109375 204.472656 L 349.910156 216.984375 C 351.402344 218.894531 351.402344 221.578125 349.910156 223.488281 L 340.109375 236 C 338.316406 238.292969 334.996094 238.695312 332.707031 236.902344 C 330.414062 235.105469 330.007812 231.789062 331.804688 229.496094 L 334.921875 225.511719 L 315.1875 225.511719 C 315.234375 224.957031 315.257812 224.398438 315.257812 223.832031 Z M 75.875 225.511719 L 66 225.511719 C 63.648438 234.75 55.273438 241.585938 45.308594 241.585938 C 33.527344 241.585938 23.960938 232.019531 23.960938 220.238281 C 23.960938 208.453125 33.527344 198.886719 45.308594 198.886719 C 55.273438 198.886719 63.648438 205.726562 66 214.960938 L 75.804688 214.960938 L 75.804688 223.832031 C 75.804688 224.398438 75.828125 224.957031 75.875 225.511719 Z M 56.109375 220.238281 C 56.109375 214.277344 51.269531 209.4375 45.308594 209.4375 C 39.347656 209.4375 34.511719 214.277344 34.511719 220.238281 C 34.511719 226.199219 39.347656 231.035156 45.308594 231.035156 C 51.269531 231.035156 56.109375 226.199219 56.109375 220.238281 Z M 75.804688 166.953125 L 66.058594 166.953125 C 63.789062 176.304688 55.355469 183.257812 45.308594 183.257812 C 33.527344 183.257812 23.960938 173.691406 23.960938 161.910156 C 23.960938 150.125 33.527344 140.558594 45.308594 140.558594 C 55.1875 140.558594 63.507812 147.28125 65.941406 156.402344 L 75.804688 156.402344 Z M 45.308594 151.109375 C 39.347656 151.109375 34.511719 155.949219 34.511719 161.910156 C 34.511719 167.867188 39.347656 172.707031 45.308594 172.707031 C 51.269531 172.707031 56.109375 167.867188 56.109375 161.910156 C 56.109375 155.949219 51.269531 151.109375 45.308594 151.109375 Z M 45.308594 151.109375 " fill-opacity="1" fill-rule="evenodd"/></g></svg>