<svg width="137" height="190" viewBox="0 0 137 190" fill="none" xmlns="http://www.w3.org/2000/svg">
<g clip-path="url(#clip0_230_2419)">
<path d="M34.25 190C53.156 190 68.5 175.813 68.5 158.333V126.667H34.25C15.344 126.667 0 140.853 0 158.333C0 175.813 15.344 190 34.25 190Z" fill="#0ACF83"/>
<path d="M0 94.9999C0 77.5199 15.344 63.3333 34.25 63.3333H68.5V126.667H34.25C15.344 126.667 0 112.48 0 94.9999Z" fill="#A259FF"/>
<path d="M0 31.6667C0 14.1867 15.344 0 34.25 0H68.5V63.3333H34.25C15.344 63.3333 0 49.1467 0 31.6667Z" fill="#F24E1E"/>
<path d="M68.5 0H102.75C121.656 0 137 14.1867 137 31.6667C137 49.1467 121.656 63.3333 102.75 63.3333H68.5V0Z" fill="#FF7262"/>
<path d="M137 94.9999C137 112.48 121.656 126.667 102.75 126.667C83.844 126.667 68.5 112.48 68.5 94.9999C68.5 77.5199 83.844 63.3333 102.75 63.3333C121.656 63.3333 137 77.5199 137 94.9999Z" fill="#1ABCFE"/>
</g>
<defs>
<clipPath id="clip0_230_2419">
<rect width="137" height="190" fill="white"/>
</clipPath>
</defs>
</svg>
