<svg xmlns="http://www.w3.org/2000/svg" xmlns:xlink="http://www.w3.org/1999/xlink" width="500" zoomAndPan="magnify" viewBox="0 0 375 374.999991" height="500" preserveAspectRatio="xMidYMid meet" version="1.0"><defs><clipPath id="bfc0cf6cf2"><path d="M 31.429688 55 L 343.429688 55 L 343.429688 321 L 31.429688 321 Z M 31.429688 55 " clip-rule="nonzero"/></clipPath><clipPath id="dd7794e89c"><path d="M 31.429688 41.359375 L 343.429688 41.359375 L 343.429688 333.859375 L 31.429688 333.859375 Z M 31.429688 41.359375 " clip-rule="nonzero"/></clipPath></defs><path fill="#00d8ff" d="M 215.289062 187.351562 C 215.289062 188.265625 215.246094 189.179688 215.15625 190.085938 C 215.066406 190.996094 214.933594 191.898438 214.753906 192.796875 C 214.578125 193.691406 214.355469 194.578125 214.089844 195.449219 C 213.824219 196.324219 213.519531 197.183594 213.171875 198.027344 C 212.820312 198.871094 212.429688 199.695312 212 200.503906 C 211.570312 201.308594 211.101562 202.089844 210.59375 202.851562 C 210.089844 203.609375 209.546875 204.34375 208.964844 205.050781 C 208.386719 205.753906 207.777344 206.433594 207.128906 207.078125 C 206.484375 207.722656 205.808594 208.335938 205.105469 208.917969 C 204.398438 209.496094 203.667969 210.039062 202.910156 210.546875 C 202.148438 211.054688 201.367188 211.523438 200.5625 211.953125 C 199.757812 212.386719 198.933594 212.773438 198.09375 213.125 C 197.25 213.472656 196.390625 213.78125 195.515625 214.046875 C 194.644531 214.3125 193.761719 214.535156 192.867188 214.710938 C 191.96875 214.890625 191.070312 215.023438 190.160156 215.113281 C 189.253906 215.203125 188.34375 215.246094 187.429688 215.246094 C 186.515625 215.246094 185.605469 215.203125 184.699219 215.113281 C 183.792969 215.023438 182.890625 214.890625 181.996094 214.710938 C 181.101562 214.535156 180.214844 214.3125 179.34375 214.046875 C 178.46875 213.78125 177.609375 213.472656 176.769531 213.125 C 175.925781 212.773438 175.101562 212.386719 174.296875 211.953125 C 173.492188 211.523438 172.710938 211.054688 171.953125 210.546875 C 171.191406 210.039062 170.460938 209.496094 169.753906 208.917969 C 169.050781 208.335938 168.375 207.722656 167.730469 207.078125 C 167.085938 206.433594 166.472656 205.753906 165.894531 205.050781 C 165.316406 204.34375 164.773438 203.609375 164.265625 202.851562 C 163.757812 202.089844 163.289062 201.308594 162.859375 200.503906 C 162.429688 199.695312 162.039062 198.871094 161.691406 198.027344 C 161.339844 197.183594 161.035156 196.324219 160.769531 195.449219 C 160.503906 194.578125 160.28125 193.691406 160.105469 192.796875 C 159.925781 191.898438 159.792969 190.996094 159.703125 190.085938 C 159.613281 189.179688 159.570312 188.265625 159.570312 187.351562 C 159.570312 186.441406 159.613281 185.527344 159.703125 184.621094 C 159.792969 183.710938 159.925781 182.808594 160.105469 181.910156 C 160.28125 181.015625 160.503906 180.128906 160.769531 179.257812 C 161.035156 178.382812 161.339844 177.523438 161.691406 176.679688 C 162.039062 175.835938 162.429688 175.011719 162.859375 174.203125 C 163.289062 173.398438 163.757812 172.617188 164.265625 171.855469 C 164.773438 171.097656 165.316406 170.363281 165.894531 169.65625 C 166.472656 168.953125 167.085938 168.273438 167.730469 167.628906 C 168.375 166.984375 169.050781 166.371094 169.753906 165.789062 C 170.460938 165.210938 171.191406 164.667969 171.953125 164.160156 C 172.710938 163.652344 173.492188 163.183594 174.296875 162.753906 C 175.101562 162.320312 175.925781 161.933594 176.769531 161.582031 C 177.609375 161.234375 178.46875 160.925781 179.34375 160.660156 C 180.214844 160.394531 181.101562 160.171875 181.996094 159.996094 C 182.890625 159.816406 183.792969 159.683594 184.699219 159.59375 C 185.605469 159.503906 186.515625 159.457031 187.429688 159.457031 C 188.34375 159.457031 189.253906 159.503906 190.160156 159.59375 C 191.070312 159.683594 191.96875 159.816406 192.867188 159.996094 C 193.761719 160.171875 194.644531 160.394531 195.515625 160.660156 C 196.390625 160.925781 197.25 161.234375 198.09375 161.582031 C 198.933594 161.933594 199.757812 162.320312 200.5625 162.753906 C 201.367188 163.183594 202.148438 163.652344 202.910156 164.160156 C 203.667969 164.667969 204.398438 165.210938 205.105469 165.789062 C 205.808594 166.371094 206.484375 166.984375 207.128906 167.628906 C 207.777344 168.273438 208.386719 168.953125 208.964844 169.65625 C 209.546875 170.363281 210.089844 171.097656 210.59375 171.855469 C 211.101562 172.617188 211.570312 173.398438 212 174.203125 C 212.429688 175.011719 212.820312 175.835938 213.171875 176.679688 C 213.519531 177.523438 213.824219 178.382812 214.089844 179.257812 C 214.355469 180.128906 214.578125 181.015625 214.753906 181.910156 C 214.933594 182.808594 215.066406 183.710938 215.15625 184.621094 C 215.246094 185.527344 215.289062 186.441406 215.289062 187.351562 Z M 215.289062 187.351562 " fill-opacity="1" fill-rule="nonzero"/><g clip-path="url(#bfc0cf6cf2)"><path stroke-linecap="butt" transform="matrix(0.55536, 0, 0, 0.556034, 37.7438, 55.223221)" fill="none" stroke-linejoin="miter" d="M 269.529479 135.62758 C 336.884439 135.62758 399.4635 145.294261 446.6387 161.536534 C 503.485274 181.108754 538.435859 210.769166 538.435859 237.626523 C 538.435859 265.621962 501.396257 297.130004 440.350549 317.355568 C 394.202273 332.649438 333.473082 340.63007 269.529479 340.63007 C 203.975152 340.63007 141.90252 333.141202 95.233748 317.186963 C 36.185618 297.010576 0.623099 265.088047 0.623099 237.626523 C 0.623099 210.986948 33.991095 181.551341 90.035824 162.014248 C 137.393902 145.505018 201.506314 135.62758 269.529479 135.62758 Z M 269.529479 135.62758 " stroke="#00d8ff" stroke-width="24" stroke-opacity="1" stroke-miterlimit="4"/></g><g clip-path="url(#dd7794e89c)"><path stroke-linecap="butt" transform="matrix(0.55536, 0, 0, 0.556034, 37.7438, 55.223221)" fill="none" stroke-linejoin="miter" d="M 180.742755 186.918598 C 214.3921 128.574275 254.020113 79.201138 291.657581 46.44261 C 337.011046 6.975012 380.162955 -8.480438 403.430521 4.937703 C 427.675775 18.917859 436.474966 66.752476 423.497742 129.740459 C 413.699761 177.357294 390.263386 233.945316 358.323236 289.339053 C 325.574208 346.12378 288.070381 396.157285 250.939341 428.606705 C 203.961085 469.67605 158.544316 484.534357 134.763288 470.821158 C 111.678599 457.522446 102.858307 413.902952 113.929392 355.58673 C 123.284247 306.318972 146.755791 245.853037 180.728688 186.932648 Z M 180.742755 186.918598 " stroke="#00d8ff" stroke-width="24" stroke-opacity="1" stroke-miterlimit="4"/><path stroke-linecap="butt" transform="matrix(0.55536, 0, 0, 0.556034, 37.7438, 55.223221)" fill="none" stroke-linejoin="miter" d="M 180.820126 289.479557 C 147.079342 231.198461 124.100159 172.200794 114.513191 123.228094 C 102.963813 64.230428 111.129969 19.12159 134.376433 5.661299 C 158.600586 -8.361009 204.432344 7.902339 252.514895 50.601531 C 288.872225 82.882346 326.200209 131.433533 358.231798 186.771068 C 391.079298 243.499594 415.697339 300.979816 425.27024 349.348349 C 437.38935 410.56598 427.577303 457.332765 403.817376 471.088116 C 380.760822 484.436004 338.5655 470.308318 293.577788 431.592416 C 255.567533 398.883065 214.898529 348.336719 180.820126 289.472531 Z M 180.820126 289.479557 " stroke="#00d8ff" stroke-width="24" stroke-opacity="1" stroke-miterlimit="4"/></g></svg>